<svg width="113" height="42" viewBox="0 0 113 42" fill="none" xmlns="http://www.w3.org/2000/svg">
<path d="M33.4606 4.19509C28.5967 2.59802 14.3368 3.00601 7.78591 3.52399C8.18276 2.3999 8.84267 0.90017 15.5446 0.447336C17.8298 0.264519 23.6982 -0.0462691 28.8902 0.173111C35.3802 0.447336 39.4022 0.538724 41.4132 3.09818C42.053 4.19509 43.0037 9.36878 42.7843 17.2665C42.5649 25.1641 40.56 27.1386 39.585 27.1386C40.3163 11.7819 39.585 6.20604 33.4606 4.19509Z" fill="#20388E"/>
<path d="M21.76 6.29645C-0.689853 5.49206 1.55872 8.67306 0.553234 13.2435C0.0961929 17.1131 0.0455405 25.762 0.827459 30.0626C1.55871 34.0846 6.95181 34.4502 9.14561 34.4502L13.716 34.7244L17.1895 40.3917C17.5856 41.123 18.5607 42.1833 19.2919 40.5745L22.674 34.7244C24.4108 34.633 28.6704 34.3588 31.8148 33.9931C34.9593 33.6275 35.9282 29.8798 36.0196 28.0516C36.2024 26.2234 36.5498 21.6896 36.4767 18.1795C36.4035 14.6694 35.4102 10.8669 34.9227 9.40433C34.618 8.79494 33.5699 7.48475 31.8148 7.11912C30.0598 6.75349 24.3804 6.41833 21.76 6.29645Z" fill="#20388E"/>
<path d="M91.9718 25.9223C93.7982 25.9223 95.5499 25.1967 96.8413 23.9053C98.1328 22.6138 98.8584 20.8622 98.8584 19.0357V10.4276C98.8584 8.60113 98.1328 6.84951 96.8413 5.55804C95.5499 4.26656 93.7982 3.54102 91.9718 3.54102C90.1454 3.54102 88.3938 4.26656 87.1023 5.55804C85.8108 6.84951 85.0853 8.60113 85.0853 10.4276V19.0357C85.0853 20.8622 85.8108 22.6138 87.1023 23.9053C88.3938 25.1967 90.1454 25.9223 91.9718 25.9223Z" fill="#20388E"/>
<path d="M104.023 19.0356C104.023 18.579 103.842 18.1411 103.519 17.8182C103.196 17.4954 102.758 17.314 102.302 17.314C101.845 17.314 101.407 17.4954 101.084 17.8182C100.761 18.1411 100.58 18.579 100.58 19.0356C100.58 21.3186 99.6731 23.5082 98.0587 25.1225C96.4444 26.7368 94.2548 27.6438 91.9718 27.6438C89.6888 27.6438 87.4993 26.7368 85.8849 25.1225C84.2706 23.5082 83.3636 21.3186 83.3636 19.0356C83.3636 18.579 83.1822 18.1411 82.8594 17.8182C82.5365 17.4954 82.0986 17.314 81.642 17.314C81.1854 17.314 80.7475 17.4954 80.4246 17.8182C80.1017 18.1411 79.9204 18.579 79.9204 19.0356C79.9238 21.9311 80.9695 24.7286 82.8664 26.9163C84.7632 29.104 87.3843 30.5357 90.2502 30.9493V34.5303H86.6175C86.2111 34.5303 85.8214 34.6918 85.5341 34.9791C85.2467 35.2665 85.0853 35.6562 85.0853 36.0626V36.4413C85.0853 36.8477 85.2467 37.2375 85.5341 37.5248C85.8214 37.8122 86.2111 37.9736 86.6175 37.9736H97.3261C97.7325 37.9736 98.1222 37.8122 98.4096 37.5248C98.6969 37.2375 98.8584 36.8477 98.8584 36.4413V36.0626C98.8584 35.6562 98.6969 35.2665 98.4096 34.9791C98.1222 34.6918 97.7325 34.5303 97.3261 34.5303H93.6934V30.9493C96.5593 30.5357 99.1804 29.104 101.077 26.9163C102.974 24.7286 104.02 21.9311 104.023 19.0356Z" fill="#20388E"/>
</svg>
